# xmcd CD database file
#
# Track frame offsets:
#	150
#	19117
#	34511
#	46076
#	60582
#	72490
#	88448
#	109069
#	125841
#	138979
#	149291
#	168509
#
# Disc length: 2469 seconds
#
# Revision: 2
# Processed by: cddbd v1.5.2PL0 Copyright (c) Steve Scherf et al.
# Submitted via: CDex 2.16
#
DISCID=ad09a30c
DTITLE=Various Artist - Forever Country - Pop Goes The Country #1's [CD3]
DYEAR=2006
DGENRE=Country
TTITLE0=Faron Young - Georgia
TTITLE1=Donna Fargo - Great Balls of Fire
TTITLE2=Lynn Anderson - That'll Be the Day
TTITLE3=Nat Stuckey - Margaritaville
TTITLE4=Nat Stuckey - Amanda
TTITLE5=Sandy Posey - Save the Last Dance For Me
TTITLE6=Faron Young - September Song
TTITLE7=David Houston - Blue Skies
TTITLE8=Skeeter Davis - Somebody to Love
TTITLE9=Billy Joe Royal - Wake Up Little Susie
TTITLE10=Ferlin Husky - Help Me Make It Through the Night
TTITLE11=Freddy Weller - Stand By Me
EXTD=YEAR: 2006
EXTT0=
EXTT1=
EXTT2=
EXTT3=
EXTT4=
EXTT5=
EXTT6=
EXTT7=
EXTT8=
EXTT9=
EXTT10=
EXTT11=
PLAYORDER=
